<svg xmlns="http://www.w3.org/2000/svg" viewBox="0 0 1360 1400" width="1360" height="1400" role="img" aria-labelledby="tw-arch-title tw-arch-desc" font-family="ui-sans-serif, system-ui, -apple-system, 'Segoe UI', Roboto, Helvetica, Arial, sans-serif">
<title id="tw-arch-title">Tamperward architecture</title>
<desc id="tw-arch-desc">Component map of Tamperward in three lanes. The Steering lane (agent host, in-loop) and the Verification lane (agent host, post-exit envelope) run where the agent shares the filesystem with what judges it. The Authority lane (protected CI) sits across the trust boundary, drawn shaded with a dashed red border, and re-runs check and verify against the trusted base before a merge to main leads to release and the npm package. Solid arrows are normal flow; dotted arrows are optional or advisory paths such as the opt-in hook-service, doctor reading each lane, and trace-verify proposing inputs for review.</desc>
<defs>
<marker id="arw" viewBox="0 0 10 10" refX="9" refY="5" markerWidth="8" markerHeight="8" orient="auto-start-reverse"><path d="M0,0 L10,5 L0,10 z" fill="#334155"/></marker>
<marker id="arwd" viewBox="0 0 10 10" refX="9" refY="5" markerWidth="8" markerHeight="8" orient="auto-start-reverse"><path d="M0,0 L10,5 L0,10 z" fill="#64748b"/></marker>
</defs>
<rect x="0" y="0" width="1360" height="1400" fill="#ffffff"/>
<rect x="130" y="108" width="1120" height="400" rx="14" fill="#f7fafd" stroke="#94a3b8" stroke-width="1.5"/>
<text x="152" y="138" font-size="16" font-weight="700" fill="#94a3b8">Steering lane: agent host, in-loop, not the final authority</text>
<rect x="130" y="522" width="1120" height="462" rx="14" fill="#f6fdf9" stroke="#94a3b8" stroke-width="1.5"/>
<text x="152" y="552" font-size="16" font-weight="700" fill="#94a3b8">Verification lane: agent host, post-exit envelope</text>
<rect x="130" y="1024" width="1120" height="236" rx="14" fill="#e63946" stroke="#e63946" stroke-width="3" stroke-dasharray="8 4"/>
<text x="152" y="1054" font-size="16" font-weight="700" fill="#e63946">Authority lane: protected CI, across the trust boundary</text>
<rect x="130" y="1024" width="1120" height="236" rx="14" fill="#e63946" fill-opacity="0.078" stroke="none" pointer-events="none"/>
<rect x="130" y="1024" width="1120" height="236" rx="14" fill="none" stroke="#e63946" stroke-width="3" stroke-dasharray="8 4"/>
<text x="152" y="1054" font-size="16" font-weight="700" fill="#a01523">Authority lane: protected CI, across the trust boundary</text>
<path d="M 350.0,55.0 L 410.0,55.0" fill="none" stroke="#334155" stroke-width="1.6" marker-end="url(#arw)" stroke-linejoin="round" stroke-linecap="round"/>
<path d="M 250.0,29.0 L 250.0,16.0 L 720.0,16.0 L 720.0,33.0" fill="none" stroke="#334155" stroke-width="1.6" marker-end="url(#arw)" stroke-linejoin="round" stroke-linecap="round"/>
<path d="M 590.0,55.0 L 645.0,55.0" fill="none" stroke="#334155" stroke-width="1.6" marker-end="url(#arw)" stroke-linejoin="round" stroke-linecap="round"/>
<path d="M 500.0,77.0 L 500.0,96.0 L 158.0,96.0 L 158.0,560.0 L 150.0,560.0" fill="none" stroke="#334155" stroke-width="1.6" marker-end="url(#arw)" stroke-linejoin="round" stroke-linecap="round"/>
<path d="M 250.0,81.0 L 250.0,96.0 L 186.0,96.0 L 186.0,644.0 L 237.5,644.0" fill="none" stroke="#334155" stroke-width="1.6" marker-end="url(#arw)" stroke-linejoin="round" stroke-linecap="round"/>
<path d="M 720.0,77.0 L 545.0,212.0" fill="none" stroke="#334155" stroke-width="1.6" marker-end="url(#arw)" stroke-linejoin="round" stroke-linecap="round"/>
<path d="M 720.0,77.0 L 720.0,110.0 L 196.0,110.0 L 196.0,660.0 L 237.5,660.0" fill="none" stroke="#334155" stroke-width="1.6" marker-end="url(#arw)" stroke-linejoin="round" stroke-linecap="round"/>
<path d="M 720.0,77.0 L 720.0,122.0 L 206.0,122.0 L 206.0,1140.0 L 285.0,1136.0" fill="none" stroke="#334155" stroke-width="1.6" marker-end="url(#arw)" stroke-linejoin="round" stroke-linecap="round"/>
<path d="M 75.0,538.0 L 75.0,190.0 L 545.0,190.0 L 545.0,212.0" fill="none" stroke="#64748b" stroke-width="1.6" stroke-dasharray="2 4" marker-end="url(#arwd)" stroke-linejoin="round" stroke-linecap="round"/>
<path d="M 150.0,554.0 L 215.0,554.0 L 215.0,650.0 L 237.5,650.0" fill="none" stroke="#64748b" stroke-width="1.6" stroke-dasharray="2 4" marker-end="url(#arwd)" stroke-linejoin="round" stroke-linecap="round"/>
<path d="M 75.0,582.0 L 75.0,1092.0 L 400.0,1092.0 L 400.0,1112.0" fill="none" stroke="#64748b" stroke-width="1.6" stroke-dasharray="2 4" marker-end="url(#arwd)" stroke-linejoin="round" stroke-linecap="round"/>
<path d="M 375.0,240.0 L 430.0,240.0" fill="none" stroke="#334155" stroke-width="1.6" marker-end="url(#arw)" stroke-linejoin="round" stroke-linecap="round"/>
<path d="M 660.0,240.0 L 720.0,240.0" fill="none" stroke="#334155" stroke-width="1.6" marker-end="url(#arw)" stroke-linejoin="round" stroke-linecap="round"/>
<path d="M 880.0,240.0 L 957.5,240.0" fill="none" stroke="#64748b" stroke-width="1.6" stroke-dasharray="2 4" marker-end="url(#arwd)" stroke-linejoin="round" stroke-linecap="round"/>
<path d="M 800.0,262.0 L 800.0,337.0" fill="none" stroke="#334155" stroke-width="1.6" marker-end="url(#arw)" stroke-linejoin="round" stroke-linecap="round"/>
<path d="M 1075.0,268.0 L 912.5,365.0" fill="none" stroke="#64748b" stroke-width="1.6" stroke-dasharray="2 4" marker-end="url(#arwd)" stroke-linejoin="round" stroke-linecap="round"/>
<path d="M 687.5,365.0 L 557.5,365.0" fill="none" stroke="#334155" stroke-width="1.6" marker-end="url(#arw)" stroke-linejoin="round" stroke-linecap="round"/>
<path d="M 455.0,343.0 L 300.0,262.0" fill="none" stroke="#334155" stroke-width="1.6" marker-end="url(#arw)" stroke-linejoin="round" stroke-linecap="round"/>
<path d="M 545.0,268.0 L 680.0,432.0" fill="none" stroke="#334155" stroke-width="1.6" marker-end="url(#arw)" stroke-linejoin="round" stroke-linecap="round"/>
<path d="M 892.5,460.0 L 775.0,460.0" fill="none" stroke="#334155" stroke-width="1.6" marker-end="url(#arw)" stroke-linejoin="round" stroke-linecap="round"/>
<path d="M 680.0,432.0 L 455.0,387.0" fill="none" stroke="#334155" stroke-width="1.6" marker-end="url(#arw)" stroke-linejoin="round" stroke-linecap="round"/>
<path d="M 300.0,262.0 L 315.0,402.0" fill="none" stroke="#334155" stroke-width="1.6" marker-end="url(#arw)" stroke-linejoin="round" stroke-linecap="round"/>
<path d="M 315.0,458.0 L 315.0,510.0 L 216.0,510.0 L 216.0,785.0 L 257.5,785.0" fill="none" stroke="#334155" stroke-width="1.6" marker-end="url(#arw)" stroke-linejoin="round" stroke-linecap="round"/>
<path d="M 360.0,678.0 L 360.0,763.0" fill="none" stroke="#334155" stroke-width="1.6" marker-end="url(#arw)" stroke-linejoin="round" stroke-linecap="round"/>
<path d="M 462.5,785.0 L 532.5,785.0" fill="none" stroke="#334155" stroke-width="1.6" marker-end="url(#arw)" stroke-linejoin="round" stroke-linecap="round"/>
<path d="M 360.0,807.0 L 360.0,828.0 L 890.0,828.0 L 890.0,807.0" fill="none" stroke="#334155" stroke-width="1.6" marker-end="url(#arw)" stroke-linejoin="round" stroke-linecap="round"/>
<path d="M 890.0,807.0 L 740.0,882.0" fill="none" stroke="#334155" stroke-width="1.6" marker-end="url(#arw)" stroke-linejoin="round" stroke-linecap="round"/>
<path d="M 890.0,807.0 L 1000.0,882.0" fill="none" stroke="#334155" stroke-width="1.6" marker-end="url(#arw)" stroke-linejoin="round" stroke-linecap="round"/>
<path d="M 482.5,642.0 L 482.0,600.0 L 1150.0,600.0 L 1150.0,910.0 L 1112.5,910.0" fill="none" stroke="#334155" stroke-width="1.6" marker-end="url(#arw)" stroke-linejoin="round" stroke-linecap="round"/>
<path d="M 620.0,763.0 L 650.0,678.0" fill="none" stroke="#334155" stroke-width="1.6" marker-end="url(#arw)" stroke-linejoin="round" stroke-linecap="round"/>
<path d="M 890.0,763.0 L 757.5,650.0" fill="none" stroke="#334155" stroke-width="1.6" marker-end="url(#arw)" stroke-linejoin="round" stroke-linecap="round"/>
<path d="M 360.0,763.0 L 542.5,650.0" fill="none" stroke="#334155" stroke-width="1.6" marker-end="url(#arw)" stroke-linejoin="round" stroke-linecap="round"/>
<path d="M 237.5,656.0 L 224.0,656.0 L 224.0,905.0 L 242.5,905.0" fill="none" stroke="#334155" stroke-width="1.6" marker-end="url(#arw)" stroke-linejoin="round" stroke-linecap="round"/>
<path d="M 242.5,905.0 L 150.0,905.0 L 150.0,96.0 L 240.0,81.0" fill="none" stroke="#64748b" stroke-width="1.6" stroke-dasharray="2 4" marker-end="url(#arwd)" stroke-linejoin="round" stroke-linecap="round"/>
<path d="M 1130.0,77.0 L 1130.0,81.0 L 1268.0,81.0 L 1268.0,712.0 L 620.0,712.0 L 620.0,763.0" fill="none" stroke="#334155" stroke-width="1.6" marker-end="url(#arw)" stroke-linejoin="round" stroke-linecap="round"/>
<path d="M 1130.0,77.0 L 1130.0,81.0 L 1252.0,81.0 L 1252.0,730.0 L 890.0,730.0 L 890.0,763.0" fill="none" stroke="#334155" stroke-width="1.6" marker-end="url(#arw)" stroke-linejoin="round" stroke-linecap="round"/>
<path d="M 295.0,458.0 L 232.0,458.0 L 232.0,1125.0 L 285.0,1125.0" fill="none" stroke="#334155" stroke-width="1.6" marker-end="url(#arw)" stroke-linejoin="round" stroke-linecap="round"/>
<path d="M 482.5,658.0 L 510.0,658.0 L 510.0,1100.0 L 430.0,1100.0 L 430.0,1112.0" fill="none" stroke="#334155" stroke-width="1.6" marker-end="url(#arw)" stroke-linejoin="round" stroke-linecap="round"/>
<path d="M 285.0,1155.0 L 166.0,1155.0 L 166.0,578.0 L 150.0,578.0" fill="none" stroke="#334155" stroke-width="1.6" marker-end="url(#arw)" stroke-linejoin="round" stroke-linecap="round"/>
<path d="M 370.0,1112.0 L 620.0,807.0" fill="none" stroke="#334155" stroke-width="1.6" marker-end="url(#arw)" stroke-linejoin="round" stroke-linecap="round"/>
<path d="M 515.0,1120.0 L 560.0,1120.0 L 560.0,1004.0 L 868.0,1004.0 L 868.0,807.0" fill="none" stroke="#334155" stroke-width="1.6" marker-end="url(#arw)" stroke-linejoin="round" stroke-linecap="round"/>
<path d="M 515.0,1145.0 L 580.0,1140.0" fill="none" stroke="#334155" stroke-width="1.6" marker-end="url(#arw)" stroke-linejoin="round" stroke-linecap="round"/>
<path d="M 780.0,1140.0 L 815.0,1140.0" fill="none" stroke="#334155" stroke-width="1.6" marker-end="url(#arw)" stroke-linejoin="round" stroke-linecap="round"/>
<path d="M 1045.0,1140.0 L 1105.0,1140.0" fill="none" stroke="#334155" stroke-width="1.6" marker-end="url(#arw)" stroke-linejoin="round" stroke-linecap="round"/>
<path d="M 1180.0,1162.0 L 1000.0,1288.0" fill="none" stroke="#334155" stroke-width="1.6" marker-end="url(#arw)" stroke-linejoin="round" stroke-linecap="round"/>
<path d="M 1090.0,1310.0 L 1130.0,1310.0" fill="none" stroke="#334155" stroke-width="1.6" marker-end="url(#arw)" stroke-linejoin="round" stroke-linecap="round"/>
<text x="300" y="182" font-size="12.5" text-anchor="middle" fill="#475569" paint-order="stroke" stroke="#ffffff" stroke-width="4" stroke-linejoin="round">reads</text>
<text x="215" y="600" font-size="12.5" text-anchor="middle" fill="#475569" paint-order="stroke" stroke="#ffffff" stroke-width="4" stroke-linejoin="round">reads</text>
<text x="200" y="1084" font-size="12.5" text-anchor="middle" fill="#475569" paint-order="stroke" stroke="#ffffff" stroke-width="4" stroke-linejoin="round">reads</text>
<text x="918" y="232" font-size="12.5" text-anchor="middle" fill="#475569" paint-order="stroke" stroke="#ffffff" stroke-width="4" stroke-linejoin="round">opt-in</text>
<text x="150" y="470" font-size="12.5" text-anchor="end" fill="#475569" paint-order="stroke" stroke="#ffffff" stroke-width="4" stroke-linejoin="round">proposed inputs for review</text>
<rect x="150.0" y="29.0" width="200" height="52" rx="9" fill="#eef2ff" stroke="#4338ca" stroke-width="1.6"/>
<text x="250.0" y="51.5" font-size="14" text-anchor="middle" fill="#1e1b4b" font-weight="600">Operator and</text>
<text x="250.0" y="68.5" font-size="14" text-anchor="middle" fill="#1e1b4b" font-weight="600">repository owner</text>
<rect x="410.0" y="33.0" width="180" height="44" rx="9" fill="#eef2ff" stroke="#4338ca" stroke-width="1.6"/>
<text x="500.0" y="60.0" font-size="14" text-anchor="middle" fill="#1e1b4b" font-weight="600">tamperward onboard</text>
<rect x="645.0" y="33.0" width="150" height="44" rx="9" fill="#eef2ff" stroke="#4338ca" stroke-width="1.6"/>
<text x="720.0" y="60.0" font-size="14" text-anchor="middle" fill="#1e1b4b" font-weight="600">tamperward init</text>
<rect x="1040.0" y="33.0" width="180" height="44" rx="9" fill="#eef2ff" stroke="#4338ca" stroke-width="1.6"/>
<text x="1130.0" y="60.0" font-size="14" text-anchor="middle" fill="#1e1b4b" font-weight="600">tamperward research</text>
<rect x="0.0" y="538.0" width="150" height="44" rx="9" fill="#eef2ff" stroke="#4338ca" stroke-width="1.6"/>
<text x="75.0" y="565.0" font-size="14" text-anchor="middle" fill="#1e1b4b" font-weight="600">tamperward doctor</text>
<rect x="225.0" y="218.0" width="150" height="44" rx="9" fill="#eef6ff" stroke="#2563eb" stroke-width="1.6"/>
<text x="300.0" y="245.0" font-size="14" text-anchor="middle" fill="#0f2a4a" font-weight="600">Agent runtime</text>
<rect x="430.0" y="212.0" width="230" height="56" rx="9" fill="#eef6ff" stroke="#2563eb" stroke-width="1.6"/>
<text x="545.0" y="236.5" font-size="13" text-anchor="middle" fill="#0f2a4a" font-weight="500">Claude hooks:</text>
<text x="545.0" y="253.5" font-size="13" text-anchor="middle" fill="#0f2a4a" font-weight="500">PreToolUse · PostToolUse · Stop</text>
<rect x="720.0" y="218.0" width="160" height="44" rx="9" fill="#eef6ff" stroke="#2563eb" stroke-width="1.6"/>
<text x="800.0" y="245.0" font-size="14" text-anchor="middle" fill="#0f2a4a" font-weight="600">tamperward hook</text>
<rect x="957.5" y="212.0" width="235" height="56" rx="9" fill="#eef6ff" stroke="#2563eb" stroke-width="1.6"/>
<text x="1075.0" y="236.5" font-size="14" text-anchor="middle" fill="#0f2a4a" font-weight="500">tamperward hook-service:</text>
<text x="1075.0" y="253.5" font-size="14" text-anchor="middle" fill="#0f2a4a" font-weight="500">opt-in warm evaluator</text>
<rect x="352.5" y="343.0" width="205" height="44" rx="9" fill="#eef6ff" stroke="#2563eb" stroke-width="1.6"/>
<text x="455.0" y="370.0" font-size="13" text-anchor="middle" fill="#0f2a4a" font-weight="600">Deny or allow the tool call</text>
<rect x="687.5" y="337.0" width="225" height="56" rx="9" fill="#eef6ff" stroke="#2563eb" stroke-width="1.6"/>
<text x="800.0" y="361.5" font-size="14" text-anchor="middle" fill="#0f2a4a" font-weight="500">Protected-tree snapshot</text>
<text x="800.0" y="378.5" font-size="14" text-anchor="middle" fill="#0f2a4a" font-weight="500">from live reads</text>
<rect x="585.0" y="432.0" width="190" height="56" rx="9" fill="#eef6ff" stroke="#2563eb" stroke-width="1.6"/>
<text x="680.0" y="456.5" font-size="14" text-anchor="middle" fill="#0f2a4a" font-weight="500">Stop sweep of the</text>
<text x="680.0" y="473.5" font-size="14" text-anchor="middle" fill="#0f2a4a" font-weight="500">turn&#x27;s net changes</text>
<rect x="892.5" y="432.0" width="235" height="56" rx="9" fill="#eef6ff" stroke="#2563eb" stroke-width="1.6"/>
<text x="1010.0" y="456.5" font-size="13" text-anchor="middle" fill="#0f2a4a" font-weight="500">tamperward watch:</text>
<text x="1010.0" y="473.5" font-size="13" text-anchor="middle" fill="#0f2a4a" font-weight="500">optional transient observer</text>
<rect x="220.0" y="402.0" width="190" height="56" rx="9" fill="#eef6ff" stroke="#2563eb" stroke-width="1.6"/>
<text x="315.0" y="426.5" font-size="14" text-anchor="middle" fill="#0f2a4a" font-weight="500">Candidate commit</text>
<text x="315.0" y="443.5" font-size="14" text-anchor="middle" fill="#0f2a4a" font-weight="500">and worktree</text>
<rect x="237.5" y="622.0" width="245" height="56" rx="9" fill="#eefbf3" stroke="#0f9d58" stroke-width="1.6"/>
<text x="360.0" y="646.5" font-size="13" text-anchor="middle" fill="#0b3d24" font-weight="500">Trusted base — entry commit,</text>
<text x="360.0" y="663.5" font-size="13" text-anchor="middle" fill="#0b3d24" font-weight="500">policy, verifier definition</text>
<rect x="542.5" y="622.0" width="215" height="56" rx="9" fill="#eefbf3" stroke="#0f9d58" stroke-width="1.6"/>
<text x="650.0" y="646.5" font-size="14" text-anchor="middle" fill="#0b3d24" font-weight="500">Local verdict:</text>
<text x="650.0" y="663.5" font-size="14" text-anchor="middle" fill="#0b3d24" font-weight="500">exit code and JSON report</text>
<rect x="257.5" y="763.0" width="205" height="44" rx="9" fill="#eefbf3" stroke="#0f9d58" stroke-width="1.6"/>
<text x="360.0" y="790.0" font-size="14" text-anchor="middle" fill="#0b3d24" font-weight="600">tamperward run envelope</text>
<rect x="532.5" y="763.0" width="175" height="44" rx="9" fill="#eefbf3" stroke="#0f9d58" stroke-width="1.6"/>
<text x="620.0" y="790.0" font-size="14" text-anchor="middle" fill="#0b3d24" font-weight="600">tamperward check</text>
<rect x="802.5" y="763.0" width="175" height="44" rx="9" fill="#eefbf3" stroke="#0f9d58" stroke-width="1.6"/>
<text x="890.0" y="790.0" font-size="14" text-anchor="middle" fill="#0b3d24" font-weight="600">tamperward verify</text>
<rect x="242.5" y="877.0" width="235" height="56" rx="9" fill="#eefbf3" stroke="#0f9d58" stroke-width="1.6"/>
<text x="360.0" y="901.5" font-size="14" text-anchor="middle" fill="#0b3d24" font-weight="500">tamperward trace-verify:</text>
<text x="360.0" y="918.5" font-size="14" text-anchor="middle" fill="#0b3d24" font-weight="500">advisory input audit</text>
<rect x="632.5" y="882.0" width="215" height="56" rx="9" fill="#eefbf3" stroke="#0f9d58" stroke-width="1.6"/>
<text x="740.0" y="906.5" font-size="14" text-anchor="middle" fill="#0b3d24" font-weight="500">Visible verification</text>
<text x="740.0" y="923.5" font-size="14" text-anchor="middle" fill="#0b3d24" font-weight="500">of the candidate</text>
<rect x="887.5" y="882.0" width="225" height="56" rx="9" fill="#eefbf3" stroke="#0f9d58" stroke-width="1.6"/>
<text x="1000.0" y="906.5" font-size="14" text-anchor="middle" fill="#0b3d24" font-weight="500">Pristine verification,</text>
<text x="1000.0" y="923.5" font-size="14" text-anchor="middle" fill="#0b3d24" font-weight="500">base-restored</text>
<rect x="285.0" y="1112.0" width="230" height="56" rx="9" fill="#fdeef0" stroke="#c0303c" stroke-width="1.6"/>
<text x="400.0" y="1136.5" font-size="14" text-anchor="middle" fill="#4a0d14" font-weight="500">Protected CI workflow</text>
<text x="400.0" y="1153.5" font-size="14" text-anchor="middle" fill="#4a0d14" font-weight="500">on the trusted base</text>
<rect x="580.0" y="1118.0" width="200" height="44" rx="9" fill="#fdeef0" stroke="#c0303c" stroke-width="1.6"/>
<text x="680.0" y="1145.0" font-size="14" text-anchor="middle" fill="#4a0d14" font-weight="600">Required tamperward gate</text>
<rect x="815.0" y="1112.0" width="230" height="56" rx="9" fill="#fdeef0" stroke="#c0303c" stroke-width="1.6"/>
<text x="930.0" y="1136.5" font-size="14" text-anchor="middle" fill="#4a0d14" font-weight="500">Branch protection rules</text>
<text x="930.0" y="1153.5" font-size="14" text-anchor="middle" fill="#4a0d14" font-weight="500">and CODEOWNERS</text>
<rect x="1105.0" y="1118.0" width="150" height="44" rx="9" fill="#fdeef0" stroke="#c0303c" stroke-width="1.6"/>
<text x="1180.0" y="1145.0" font-size="14" text-anchor="middle" fill="#4a0d14" font-weight="600">Merge to main</text>
<rect x="910.0" y="1288.0" width="180" height="44" rx="9" fill="#f5f3ff" stroke="#7c3aed" stroke-width="1.6"/>
<text x="1000.0" y="1315.0" font-size="14" text-anchor="middle" fill="#2e1065" font-weight="600">Release workflow</text>
<rect x="1130.0" y="1282.0" width="200" height="56" rx="9" fill="#f5f3ff" stroke="#7c3aed" stroke-width="1.6"/>
<text x="1230.0" y="1306.5" font-size="14" text-anchor="middle" fill="#2e1065" font-weight="600">npm package</text>
<text x="1230.0" y="1323.5" font-size="14" text-anchor="middle" fill="#2e1065" font-weight="600">with provenance</text>
<g font-size="12.5" fill="#475569">
<line x1="812" y1="34" x2="844" y2="34" stroke="#334155" stroke-width="1.6" marker-end="url(#arw)"/>
<text x="852" y="38">normal flow</text>
<line x1="812" y1="56" x2="844" y2="56" stroke="#64748b" stroke-width="1.6" stroke-dasharray="2 4" marker-end="url(#arwd)"/>
<text x="852" y="60">optional / advisory</text>
</g>
</svg>
